HIERARCHY
ROOT mixamorigHips
{
	OFFSET 0.000000 95.415794 0.000000
	CHANNELS 6 Xposition Yposition Zposition Xrotation Yrotation Zrotation
	JOINT mixamorigSpine
	{
		OFFSET 0.000000 10.058800 -0.358200
		CHANNELS 6 Xposition Yposition Zposition Xrotation Yrotation Zrotation
		JOINT mixamorigSpine1
		{
			OFFSET 0.000000 11.735359 -0.417847
			CHANNELS 3 Xrotation Yrotation Zrotation
			JOINT mixamorigSpine2
			{
				OFFSET 0.000000 13.411812 -0.477538
				CHANNELS 3 Xrotation Yrotation Zrotation
				JOINT mixamorigNeck
				{
					OFFSET 0.000000 15.088242 -0.537228
					CHANNELS 6 Xposition Yposition Zposition Xrotation Yrotation Zrotation
					JOINT mixamorigHead
					{
						OFFSET 0.000000 8.085602 2.687800
						CHANNELS 6 Xposition Yposition Zposition Xrotation Yrotation Zrotation
						JOINT mixamorigHeadTop_End
						{
							OFFSET 0.000000 21.499207 7.146700
							CHANNELS 6 Xposition Yposition Zposition Xrotation Yrotation Zrotation
							End Site
							{
								OFFSET 0.000000 22.655930 0.000000
							}
						}
					}
				}
				JOINT mixamorigLeftShoulder
				{
					OFFSET 5.949100 13.237015 -0.535855
					CHANNELS 6 Xposition Yposition Zposition Xrotation Yrotation Zrotation
					JOINT mixamorigLeftArm
					{
						OFFSET 11.918104 -3.676208 0.002851
						CHANNELS 3 Xrotation Yrotation Zrotation
						JOINT mixamorigLeftForeArm
						{
							OFFSET 23.814898 0.000000 -0.000001
							CHANNELS 3 Xrotation Yrotation Zrotation
							JOINT mixamorigLeftHand
							{
								OFFSET 24.556309 0.000000 -0.000001
								CHANNELS 3 Xrotation Yrotation Zrotation
								JOINT mixamorigLeftHandThumb1
								{
									OFFSET 2.802582 -1.204224 2.556223
									CHANNELS 6 Xposition Yposition Zposition Xrotation Yrotation Zrotation
									JOINT mixamorigLeftHandThumb2
									{
										OFFSET 2.466209 -1.423859 1.423865
										CHANNELS 6 Xposition Yposition Zposition Xrotation Yrotation Zrotation
										JOINT mixamorigLeftHandThumb3
										{
											OFFSET 2.369835 -1.368225 1.368225
											CHANNELS 6 Xposition Yposition Zposition Xrotation Yrotation Zrotation
											JOINT mixamorigLeftHandThumb4
											{
												OFFSET 1.846512 -1.066086 1.066086
												CHANNELS 6 Xposition Yposition Zposition Xrotation Yrotation Zrotation
												End Site
												{
													OFFSET 1.556206 -1.025696 1.486212
												}
											}
										}
									}
								}
								JOINT mixamorigLeftHandIndex1
								{
									OFFSET 8.620476 -0.225967 2.435161
									CHANNELS 6 Xposition Yposition Zposition Xrotation Yrotation Zrotation
									JOINT mixamorigLeftHandIndex2
									{
										OFFSET 3.045731 0.000000 -0.000000
										CHANNELS 6 Xposition Yposition Zposition Xrotation Yrotation Zrotation
										JOINT mixamorigLeftHandIndex3
										{
											OFFSET 2.806702 0.000000 -0.000000
											CHANNELS 6 Xposition Yposition Zposition Xrotation Yrotation Zrotation
											JOINT mixamorigLeftHandIndex4
											{
												OFFSET 2.440117 0.000000 -0.000000
												CHANNELS 6 Xposition Yposition Zposition Xrotation Yrotation Zrotation
												End Site
												{
													OFFSET 2.440094 -0.000061 -0.008200
												}
											}
										}
									}
								}
								JOINT mixamorigLeftHandMiddle1
								{
									OFFSET 8.484863 0.000000 -0.000000
									CHANNELS 6 Xposition Yposition Zposition Xrotation Yrotation Zrotation
									JOINT mixamorigLeftHandMiddle2
									{
										OFFSET 3.193611 0.000000 -0.000000
										CHANNELS 6 Xposition Yposition Zposition Xrotation Yrotation Zrotation
										JOINT mixamorigLeftHandMiddle3
										{
											OFFSET 3.085205 0.000000 -0.000000
											CHANNELS 6 Xposition Yposition Zposition Xrotation Yrotation Zrotation
											JOINT mixamorigLeftHandMiddle4
											{
												OFFSET 2.692902 0.000000 -0.000000
												CHANNELS 6 Xposition Yposition Zposition Xrotation Yrotation Zrotation
												End Site
												{
													OFFSET 2.692902 -0.000031 -0.003300
												}
											}
										}
									}
								}
								JOINT mixamorigLeftHandRing1
								{
									OFFSET 8.270775 0.052689 -2.023483
									CHANNELS 6 Xposition Yposition Zposition Xrotation Yrotation Zrotation
									JOINT mixamorigLeftHandRing2
									{
										OFFSET 2.740799 0.000000 -0.000000
										CHANNELS 6 Xposition Yposition Zposition Xrotation Yrotation Zrotation
										JOINT mixamorigLeftHandRing3
										{
											OFFSET 2.757607 0.000000 -0.000000
											CHANNELS 6 Xposition Yposition Zposition Xrotation Yrotation Zrotation
											JOINT mixamorigLeftHandRing4
											{
												OFFSET 2.285004 0.000000 -0.000000
												CHANNELS 6 Xposition Yposition Zposition Xrotation Yrotation Zrotation
												End Site
												{
													OFFSET 2.285004 0.000031 0.003000
												}
											}
										}
									}
								}
								JOINT mixamorigLeftHandPinky1
								{
									OFFSET 7.700752 -0.253616 -3.945376
									CHANNELS 6 Xposition Yposition Zposition Xrotation Yrotation Zrotation
									JOINT mixamorigLeftHandPinky2
									{
										OFFSET 2.527405 0.000000 0.000000
										CHANNELS 6 Xposition Yposition Zposition Xrotation Yrotation Zrotation
										JOINT mixamorigLeftHandPinky3
										{
											OFFSET 2.003403 0.000000 0.000000
											CHANNELS 6 Xposition Yposition Zposition Xrotation Yrotation Zrotation
											JOINT mixamorigLeftHandPinky4
											{
												OFFSET 1.854500 0.000000 0.000000
												CHANNELS 6 Xposition Yposition Zposition Xrotation Yrotation Zrotation
												End Site
												{
													OFFSET 1.854507 -0.000015 -0.001300
												}
											}
										}
									}
								}
							}
						}
					}
				}
				JOINT mixamorigRightShoulder
				{
					OFFSET -5.949100 13.237015 -0.538657
					CHANNELS 6 Xposition Yposition Zposition Xrotation Yrotation Zrotation
					JOINT mixamorigRightArm
					{
						OFFSET -11.918104 -3.676208 -0.002847
						CHANNELS 3 Xrotation Yrotation Zrotation
						JOINT mixamorigRightForeArm
						{
							OFFSET -23.819902 0.000000 0.000001
							CHANNELS 3 Xrotation Yrotation Zrotation
							JOINT mixamorigRightHand
							{
								OFFSET -24.559902 0.000000 0.000001
								CHANNELS 3 Xrotation Yrotation Zrotation
								JOINT mixamorigRightHandThumb1
								{
									OFFSET -2.702209 -1.308395 2.527615
									CHANNELS 6 Xposition Yposition Zposition Xrotation Yrotation Zrotation
									JOINT mixamorigRightHandThumb2
									{
										OFFSET -2.432022 -1.404129 1.404127
										CHANNELS 6 Xposition Yposition Zposition Xrotation Yrotation Zrotation
										JOINT mixamorigRightHandThumb3
										{
											OFFSET -2.375206 -1.371323 1.371325
											CHANNELS 6 Xposition Yposition Zposition Xrotation Yrotation Zrotation
											JOINT mixamorigRightHandThumb4
											{
												OFFSET -1.987808 -1.147659 1.147661
												CHANNELS 6 Xposition Yposition Zposition Xrotation Yrotation Zrotation
												End Site
												{
													OFFSET -1.835846 -1.144562 1.380323
												}
											}
										}
									}
								}
								JOINT mixamorigRightHandIndex1
								{
									OFFSET -8.671478 -0.301926 2.442636
									CHANNELS 6 Xposition Yposition Zposition Xrotation Yrotation Zrotation
									JOINT mixamorigRightHandIndex2
									{
										OFFSET -3.068298 0.000000 0.000000
										CHANNELS 6 Xposition Yposition Zposition Xrotation Yrotation Zrotation
										JOINT mixamorigRightHandIndex3
										{
											OFFSET -2.779701 0.000000 0.000000
											CHANNELS 6 Xposition Yposition Zposition Xrotation Yrotation Zrotation
											JOINT mixamorigRightHandIndex4
											{
												OFFSET -2.490097 0.000000 0.000000
												CHANNELS 6 Xposition Yposition Zposition Xrotation Yrotation Zrotation
												End Site
												{
													OFFSET -2.490097 0.000000 -0.000700
												}
											}
										}
									}
								}
								JOINT mixamorigRightHandMiddle1
								{
									OFFSET -8.656311 0.000000 0.000000
									CHANNELS 6 Xposition Yposition Zposition Xrotation Yrotation Zrotation
									JOINT mixamorigRightHandMiddle2
									{
										OFFSET -3.230400 0.000000 0.000000
										CHANNELS 6 Xposition Yposition Zposition Xrotation Yrotation Zrotation
										JOINT mixamorigRightHandMiddle3
										{
											OFFSET -3.025497 0.000000 0.000000
											CHANNELS 6 Xposition Yposition Zposition Xrotation Yrotation Zrotation
											JOINT mixamorigRightHandMiddle4
											{
												OFFSET -2.688805 0.000000 0.000000
												CHANNELS 6 Xposition Yposition Zposition Xrotation Yrotation Zrotation
												End Site
												{
													OFFSET -2.688797 0.000000 -0.000700
												}
											}
										}
									}
								}
								JOINT mixamorigRightHandRing1
								{
									OFFSET -8.628174 0.073822 -2.089274
									CHANNELS 6 Xposition Yposition Zposition Xrotation Yrotation Zrotation
									JOINT mixamorigRightHandRing2
									{
										OFFSET -2.674103 0.000000 0.000000
										CHANNELS 6 Xposition Yposition Zposition Xrotation Yrotation Zrotation
										JOINT mixamorigRightHandRing3
										{
											OFFSET -2.630905 0.000000 0.000000
											CHANNELS 6 Xposition Yposition Zposition Xrotation Yrotation Zrotation
											JOINT mixamorigRightHandRing4
											{
												OFFSET -2.160599 0.000000 0.000000
												CHANNELS 6 Xposition Yposition Zposition Xrotation Yrotation Zrotation
												End Site
												{
													OFFSET -2.160599 0.000000 -0.000900
												}
											}
										}
									}
								}
								JOINT mixamorigRightHandPinky1
								{
									OFFSET -7.514580 -0.339432 -3.927982
									CHANNELS 6 Xposition Yposition Zposition Xrotation Yrotation Zrotation
									JOINT mixamorigRightHandPinky2
									{
										OFFSET -2.510002 0.000000 0.000000
										CHANNELS 6 Xposition Yposition Zposition Xrotation Yrotation Zrotation
										JOINT mixamorigRightHandPinky3
										{
											OFFSET -2.099197 0.000000 0.000000
											CHANNELS 6 Xposition Yposition Zposition Xrotation Yrotation Zrotation
											JOINT mixamorigRightHandPinky4
											{
												OFFSET -1.845604 0.000000 0.000000
												CHANNELS 6 Xposition Yposition Zposition Xrotation Yrotation Zrotation
												End Site
												{
													OFFSET -1.845596 -0.000015 0.001600
												}
											}
										}
									}
								}
							}
						}
					}
				}
			}
		}
	}
	JOINT mixamorigLeftUpLeg
	{
		OFFSET 9.392100 -5.572197 -0.093200
		CHANNELS 6 Xposition Yposition Zposition Xrotation Yrotation Zrotation
		JOINT mixamorigLeftLeg
		{
			OFFSET 0.292645 -42.228855 -2.734330
			CHANNELS 3 Xrotation Yrotation Zrotation
			JOINT mixamorigLeftFoot
			{
				OFFSET -0.292647 -39.069244 -1.515097
				CHANNELS 3 Xrotation Yrotation Zrotation
				JOINT mixamorigLeftToeBase
				{
					OFFSET 1.771321 -7.534380 12.504712
					CHANNELS 3 Xrotation Yrotation Zrotation
					JOINT mixamorigLeftToe_End
					{
						OFFSET 0.606595 0.250482 5.917521
						CHANNELS 3 Xrotation Yrotation Zrotation
						End Site
						{
							OFFSET 0.606595 0.250482 5.917521
						}
					}
				}
			}
		}
	}
	JOINT mixamorigRightUpLeg
	{
		OFFSET -9.392100 -5.572197 -0.015200
		CHANNELS 6 Xposition Yposition Zposition Xrotation Yrotation Zrotation
		JOINT mixamorigRightLeg
		{
			OFFSET -0.292665 -42.228924 -2.850109
			CHANNELS 3 Xrotation Yrotation Zrotation
			JOINT mixamorigRightFoot
			{
				OFFSET 0.292671 -39.069195 -1.341140
				CHANNELS 3 Xrotation Yrotation Zrotation
				JOINT mixamorigRightToeBase
				{
					OFFSET -1.771318 -7.534140 12.379671
					CHANNELS 3 Xrotation Yrotation Zrotation
					JOINT mixamorigRightToe_End
					{
						OFFSET -0.606596 0.250612 6.000615
						CHANNELS 3 Xrotation Yrotation Zrotation
						End Site
						{
							OFFSET -0.606596 0.250612 6.000614
						}
					}
				}
			}
		}
	}
}
MOTION
Frames: 4
Frame Time: 0.033333
0.304871 94.887489 -0.049427 -3.753679 -5.228726 -3.346991 -0.000001 10.058808 -0.358201 3.307959 1.529371 2.319605 1.151890 0.339456 1.552798 1.126015 0.361543 1.555886 0.000000 15.088244 -0.537228 5.626310 -0.078963 0.454683 -0.000001 8.085574 2.687797 -7.563345 1.375724 -0.080565 0.000001 21.499222 7.146699 -0.000000 -0.000000 -0.000000 5.949105 13.236993 -0.535853 1.049450 -17.442073 -12.319418 3.916250 -19.989254 -69.765239 -0.000008 -1.459361 -0.000007 -33.230414 -1.364815 -6.186620 2.802592 -1.204214 2.556231 -0.662994 2.160314 4.832511 2.466207 -1.423850 1.423869 11.853553 25.421664 17.058271 2.369831 -1.368234 1.368220 -13.813935 3.537252 9.036010 1.846514 -1.066085 1.066085 0.000002 0.000001 0.000003 8.620468 -0.225962 2.435162 0.019869 -0.969578 -7.593529 3.045722 -0.000011 -0.000000 0.267860 1.752892 -17.375721 2.806702 -0.000012 -0.000001 0.057675 0.820954 -8.038013 2.440129 0.000001 0.000000 -0.000001 -0.000001 -0.000002 8.484869 -0.000018 -0.000000 -0.076321 2.665775 -15.696821 3.193600 -0.000028 0.000000 0.268789 1.755807 -17.405526 3.085205 -0.000003 0.000000 0.300525 1.853984 -18.413333 2.692899 -0.000016 -0.000001 -0.000000 -0.000001 0.000001 8.270766 0.052682 -2.023482 0.136907 3.641772 -21.133515 2.740801 0.000028 -0.000000 0.386601 2.094781 -20.911910 2.757619 -0.000001 0.000000 0.283045 1.800639 -17.864995 2.285006 0.000009 -0.000000 0.000001 -0.000001 -0.000004 7.700746 -0.253618 -3.945377 0.927723 5.555922 -27.128039 2.527377 -0.000001 0.000001 0.268787 1.755842 -17.405888 2.003400 -0.000019 -0.000001 0.241907 1.667698 -16.505885 1.854494 -0.000003 0.000000 0.000000 -0.000001 -0.000001 -5.949116 13.237040 -0.538655 1.203194 15.343663 14.705954 13.158852 27.555104 58.785184 0.000013 6.693745 -0.000004 -20.179080 -0.514085 6.782829 -2.702219 -1.308370 2.527622 -1.665257 -0.174463 -4.219026 -2.432035 -1.404128 1.404124 12.710939 -29.825302 -16.131034 -2.375221 -1.371314 1.371321 -15.549431 -3.559395 -12.707104 -1.987811 -1.147671 1.147659 -0.000001 0.000002 0.000001 -8.671492 -0.301924 2.442635 0.038556 1.262297 6.823708 -3.068301 0.000000 -0.000002 0.213711 -1.396028 17.407019 -2.779702 -0.000006 -0.000000 0.046030 -0.653852 8.053223 -2.490080 0.000001 0.000001 0.000000 0.000001 0.000003 -8.656330 0.000004 0.000000 -0.136234 -2.205095 14.998880 -3.230398 0.000019 -0.000001 0.214465 -1.398352 17.436889 -3.025507 -0.000011 0.000001 0.239777 -1.476530 18.446263 -2.688802 0.000001 0.000002 -0.000002 0.000001 -0.000001 -8.628196 0.073827 -2.089274 0.030617 -3.075761 20.450999 -2.674090 0.000016 0.000001 0.308440 -1.668275 20.948528 -2.630913 0.000023 0.000001 0.225815 -1.434034 17.897083 -2.160589 -0.000001 0.000001 0.000000 0.000001 -0.000001 -7.514598 -0.339421 -3.927982 0.748861 -4.885242 26.473755 -2.510001 -0.000007 -0.000001 0.214468 -1.398371 17.437253 -2.099190 0.000016 0.000003 0.193001 -1.328186 16.535820 -1.845596 -0.000010 0.000002 -0.000000 0.000001 -0.000000 9.392100 -5.572185 -0.093201 -12.496827 14.411033 10.535532 14.237619 2.077110 4.210045 1.013826 0.541741 -7.337494 -4.928500 0.000005 0.000005 0.000001 0.000001 0.000000 -9.392101 -5.572182 -0.015201 1.059644 -10.328904 3.172420 5.197445 -9.764084 -3.277483 -2.034284 -1.572576 2.930464 -7.282843 0.000011 -0.000004 0.000000 -0.000001 0.000000 
0.243719 94.891441 -0.093594 -3.773361 -5.197858 -3.347609 0.000001 10.058789 -0.358200 3.313335 1.529496 2.316848 1.158205 0.339910 1.549132 1.132343 0.362067 1.552281 0.000000 15.088265 -0.537228 5.639235 -0.074769 0.443289 0.000001 8.085596 2.687799 -7.583538 1.396262 -0.100877 -0.000001 21.499191 7.146701 0.000000 -0.000000 -0.000000 5.949098 13.237033 -0.535854 1.048241 -17.463207 -12.333378 3.934685 -19.901008 -69.748690 0.000013 -1.437181 -0.000012 -33.197564 -1.357133 -6.171043 2.802586 -1.204202 2.556231 -0.672146 2.145692 4.827587 2.466199 -1.423854 1.423867 11.841586 25.397510 17.065547 2.369833 -1.368235 1.368224 -13.813617 3.538213 9.036047 1.846506 -1.066074 1.066077 0.000002 0.000005 0.000003 8.620494 -0.225960 2.435160 0.020452 -0.971533 -7.584346 3.045728 -0.000006 -0.000001 0.268041 1.753487 -17.381795 2.806705 0.000009 -0.000001 0.057777 0.821574 -8.044060 2.440118 -0.000003 -0.000001 0.000000 -0.000001 -0.000007 8.484871 -0.000009 -0.000001 -0.078592 2.657875 -15.699571 3.193604 -0.000003 -0.000001 0.268739 1.755676 -17.404162 3.085205 0.000007 0.000000 0.300469 1.853844 -18.411974 2.692890 -0.000015 -0.000000 0.000000 0.000000 -0.000002 8.270787 0.052685 -2.023483 0.131172 3.625660 -21.103485 2.740790 0.000008 -0.000000 0.386336 2.094026 -20.903939 2.757621 -0.000007 -0.000002 0.282811 1.799910 -17.857553 2.284996 -0.000000 0.000000 -0.000000 0.000001 0.000000 7.700767 -0.253610 -3.945378 0.928187 5.556976 -27.130719 2.527397 0.000030 -0.000001 0.268617 1.755298 -17.400230 2.003406 0.000009 -0.000000 0.241752 1.667141 -16.500185 1.854500 -0.000003 0.000001 0.000000 0.000000 -0.000000 -5.949114 13.237062 -0.538653 1.202749 15.365064 14.707808 13.164257 27.537391 58.818215 0.000005 6.676432 0.000015 -20.153914 -0.538562 6.799734 -2.702234 -1.308372 2.527621 -1.672006 -0.156252 -4.251829 -2.432024 -1.404128 1.404119 12.697563 -29.800658 -16.133933 -2.375194 -1.371330 1.371324 -15.544686 -3.569942 -12.710509 -1.987802 -1.147659 1.147661 0.000003 0.000002 -0.000002 -8.671494 -0.301925 2.442635 0.041816 1.270872 6.767736 -3.068292 -0.000009 -0.000000 0.211466 -1.388858 17.314750 -2.779713 0.000013 0.000001 0.044999 -0.646415 7.960964 -2.490083 0.000014 -0.000000 -0.000001 -0.000001 -0.000003 -8.656324 0.000015 -0.000001 -0.136969 -2.204784 15.026710 -3.230403 0.000003 -0.000001 0.214442 -1.398322 17.436587 -3.025512 0.000010 -0.000000 0.239769 -1.476500 18.446012 -2.688800 0.000012 0.000000 0.000000 0.000001 -0.000002 -8.628192 0.073809 -2.089276 0.029933 -3.072271 20.413233 -2.674068 0.000009 0.000001 0.308475 -1.668374 20.949799 -2.630909 0.000028 -0.000000 0.225870 -1.434137 17.898326 -2.160605 0.000001 -0.000001 -0.000000 0.000002 -0.000000 -7.514587 -0.339414 -3.927983 0.747353 -4.883969 26.423893 -2.510010 0.000029 -0.000000 0.217756 -1.408833 17.571855 -2.099209 0.000029 0.000002 0.196146 -1.338690 16.670427 -1.845593 0.000002 0.000002 -0.000001 0.000000 -0.000001 9.392100 -5.572205 -0.093199 -12.449715 14.468800 10.578010 14.072607 1.989733 4.193842 1.140917 0.527416 -7.351261 -4.914805 0.000004 0.000005 0.000001 -0.000000 -0.000000 -9.392100 -5.572196 -0.015200 1.122793 -10.320339 3.236082 5.077990 -9.788048 -3.287529 -1.968957 -1.583711 2.874583 -7.275631 0.000015 -0.000004 0.000001 0.000000 0.000000 
0.169614 94.894318 -0.141723 -3.792222 -5.160681 -3.354741 0.000000 10.058787 -0.358200 3.317929 1.527751 2.314638 1.163466 0.337093 1.545940 1.137609 0.359303 1.549117 -0.000001 15.088232 -0.537228 5.662205 -0.070921 0.433969 0.000001 8.085584 2.687802 -7.578867 1.418907 -0.128168 0.000001 21.499207 7.146700 0.000000 -0.000000 -0.000000 5.949101 13.236985 -0.535854 1.047886 -17.484374 -12.340681 3.971594 -19.838365 -69.733185 -0.000016 -1.427154 0.000004 -33.190273 -1.366012 -6.177323 2.802601 -1.204207 2.556229 -0.679817 2.133121 4.825508 2.466200 -1.423841 1.423865 11.836664 25.387615 17.068568 2.369848 -1.368234 1.368228 -13.813544 3.538428 9.036061 1.846501 -1.066083 1.066082 0.000002 -0.000000 0.000001 8.620496 -0.225953 2.435161 0.020153 -0.971993 -7.590274 3.045731 0.000011 0.000000 0.267566 1.752000 -17.366570 2.806703 -0.000009 -0.000002 0.057565 0.820022 -8.028857 2.440124 -0.000009 -0.000001 0.000000 -0.000001 -0.000003 8.484884 -0.000009 -0.000002 -0.078374 2.658796 -15.702202 3.193595 -0.000036 0.000001 0.268554 1.755103 -17.398345 3.085204 0.000003 0.000000 0.300294 1.853284 -18.406144 2.692911 -0.000013 -0.000000 -0.000000 -0.000002 -0.000001 8.270795 0.052687 -2.023484 0.126540 3.613005 -21.090793 2.740796 0.000005 -0.000001 0.386341 2.094056 -20.904318 2.757608 0.000028 -0.000001 0.282828 1.799987 -17.858390 2.285005 -0.000006 -0.000001 0.000000 0.000000 -0.000001 7.700768 -0.253611 -3.945379 0.928222 5.557228 -27.120733 2.527390 -0.000001 -0.000000 0.268431 1.754676 -17.393886 2.003415 0.000005 0.000002 0.241557 1.666514 -16.493831 1.854503 0.000000 0.000000 -0.000001 0.000001 -0.000001 -5.949117 13.237037 -0.538655 1.200212 15.371727 14.721826 13.173747 27.540272 58.838357 0.000001 6.666658 -0.000000 -20.145885 -0.543915 6.819998 -2.702218 -1.308370 2.527619 -1.670615 -0.155500 -4.270227 -2.432010 -1.404124 1.404115 12.697154 -29.799880 -16.134001 -2.375201 -1.371320 1.371320 -15.545079 -3.569085 -12.710225 -1.987803 -1.147658 1.147661 0.000004 0.000003 -0.000002 -8.671485 -0.301929 2.442635 0.040762 1.281775 6.752451 -3.068278 0.000004 0.000000 0.210027 -1.384198 17.254841 -2.779702 0.000007 0.000001 0.044319 -0.641582 7.901083 -2.490100 0.000000 0.000003 -0.000001 0.000001 0.000001 -8.656299 0.000014 -0.000002 -0.135794 -2.208792 15.022313 -3.230416 0.000013 -0.000000 0.214586 -1.398763 17.442133 -3.025491 0.000005 0.000001 0.239906 -1.476923 18.451514 -2.688797 0.000003 -0.000001 0.000000 -0.000001 -0.000003 -8.628174 0.073810 -2.089275 0.028113 -3.066952 20.403628 -2.674074 0.000008 0.000002 0.308495 -1.668388 20.949898 -2.630913 0.000009 0.000001 0.225864 -1.434146 17.898401 -2.160601 -0.000012 0.000001 -0.000001 0.000001 -0.000002 -7.514584 -0.339417 -3.927984 0.747677 -4.885845 26.409959 -2.510014 0.000006 -0.000002 0.218904 -1.412460 17.618767 -2.099199 0.000035 0.000002 0.197240 -1.342347 16.717310 -1.845606 0.000000 0.000002 0.000000 0.000003 0.000001 9.392097 -5.572204 -0.093198 -12.418092 14.555471 10.642470 13.907511 1.881329 4.180666 1.273096 0.493285 -7.371511 -4.899687 0.000000 0.000008 0.000000 0.000001 0.000000 -9.392099 -5.572201 -0.015199 1.189294 -10.289293 3.322771 4.948963 -9.851637 -3.305491 -1.901406 -1.584462 2.812947 -7.273048 0.000004 -0.000002 0.000001 -0.000001 0.000001 
0.077392 94.895508 -0.194317 -3.812457 -5.115536 -3.369471 0.000001 10.058790 -0.358201 3.323302 1.524594 2.311602 1.169796 0.331861 1.540541 1.143929 0.354124 1.543734 -0.000000 15.088246 -0.537228 5.695540 -0.069891 0.425794 0.000000 8.085625 2.687799 -7.553981 1.430618 -0.163620 0.000000 21.499222 7.146700 0.000000 0.000000 0.000000 5.949103 13.237015 -0.535855 1.048919 -17.513645 -12.338915 4.018606 -19.785663 -69.716888 -0.000017 -1.425011 -0.000010 -33.199173 -1.387326 -6.196675 2.802575 -1.204221 2.556229 -0.678180 2.136382 4.821235 2.466214 -1.423845 1.423873 11.839641 25.393643 17.066732 2.369840 -1.368225 1.368225 -13.813241 3.539302 9.036140 1.846512 -1.066068 1.066079 0.000001 -0.000003 -0.000003 8.620461 -0.225957 2.435162 0.023403 -0.962989 -7.603535 3.045736 -0.000005 0.000001 0.267323 1.751129 -17.357693 2.806721 0.000002 -0.000001 0.057415 0.819120 -8.019975 2.440121 -0.000002 -0.000000 0.000001 -0.000000 -0.000002 8.484850 0.000003 -0.000002 -0.077918 2.661221 -15.710989 3.193620 -0.000019 0.000001 0.268430 1.754678 -17.393983 3.085213 0.000016 -0.000001 0.300144 1.852852 -18.401809 2.692892 -0.000003 -0.000000 0.000000 0.000001 0.000004 8.270761 0.052684 -2.023483 0.125674 3.611111 -21.098712 2.740773 0.000002 -0.000001 0.386352 2.094113 -20.904865 2.757615 0.000013 0.000000 0.282858 1.800066 -17.859060 2.285002 -0.000003 0.000001 0.000001 -0.000001 -0.000005 7.700749 -0.253607 -3.945378 0.928181 5.557464 -27.111283 2.527393 -0.000003 -0.000001 0.268372 1.754456 -17.391589 2.003404 -0.000014 -0.000001 0.241485 1.666280 -16.491500 1.854487 -0.000017 0.000000 0.000001 0.000001 -0.000001 -5.949112 13.237025 -0.538656 1.195351 15.366116 14.749259 13.184944 27.566107 58.850863 -0.000016 6.668065 0.000007 -20.159466 -0.534010 6.836154 -2.702207 -1.308366 2.527625 -1.669604 -0.155533 -4.280106 -2.432024 -1.404129 1.404116 12.696467 -29.798650 -16.134179 -2.375218 -1.371341 1.371326 -15.546279 -3.566402 -12.709374 -1.987806 -1.147670 1.147663 0.000004 0.000001 -0.000004 -8.671490 -0.301920 2.442639 0.039695 1.281736 6.764300 -3.068295 -0.000004 -0.000001 0.209679 -1.383060 17.240186 -2.779702 -0.000004 -0.000001 0.044156 -0.640407 7.886446 -2.490099 0.000012 0.000002 -0.000002 0.000000 0.000001 -8.656298 -0.000006 0.000003 -0.135153 -2.208094 14.987616 -3.230414 -0.000002 -0.000000 0.214723 -1.399177 17.447588 -3.025520 0.000005 -0.000000 0.240035 -1.477339 18.456935 -2.688809 -0.000012 0.000001 0.000000 0.000001 -0.000001 -8.628169 0.073815 -2.089273 0.024712 -3.058011 20.408650 -2.674075 -0.000001 0.000001 0.308326 -1.667935 20.944063 -2.630918 0.000006 0.000001 0.225715 -1.433680 17.892423 -2.160593 0.000014 -0.000001 0.000002 -0.000000 -0.000002 -7.514562 -0.339413 -3.927980 0.747870 -4.886755 26.407840 -2.510007 0.000017 0.000000 0.218304 -1.410537 17.593895 -2.099193 0.000008 0.000000 0.196661 -1.340417 16.692434 -1.845603 0.000011 -0.000000 -0.000001 -0.000001 -0.000000 9.392100 -5.572209 -0.093200 -12.399140 14.661944 10.727173 13.741026 1.757437 4.179761 1.412420 0.441113 -7.407379 -4.891305 0.000009 0.000006 -0.000000 -0.000002 -0.000000 -9.392098 -5.572211 -0.015200 1.256506 -10.252731 3.430285 4.826440 -9.929510 -3.321527 -1.841297 -1.585182 2.737872 -7.270902 0.000000 -0.000007 0.000001 0.000004 0.000000 
